Coordinates
version=1
nRows=19
nColumns=36
inDegrees=yes

Units are S.I. units (second, meters, Newtons, ...)
Angles are in degrees.

endheader
time	pelvis_tilt	pelvis_list	pelvis_rotation	pelvis_tx	pelvis_ty	pelvis_tz	hip_flexion_r	hip_adduction_r	hip_rotation_r	knee_angle_r	ankle_angle_r	subtalar_angle_r	hip_flexion_l	hip_adduction_l	hip_rotation_l	knee_angle_l	ankle_angle_l	subtalar_angle_l	lumbar_extension	lumbar_bending	lumbar_rotation	arm_flex_r	arm_add_r	arm_rot_r	elbow_flex_r	pro_sup_r	wrist_flex_r	wrist_dev_r	arm_flex_l	arm_add_l	arm_rot_l	elbow_flex_l	pro_sup_l	wrist_flex_l	wrist_dev_l
      2.06000000	     -0.50442112	      5.28037892	      2.72769683	     -0.33117259	      0.90262655	      0.19209300	      7.45454447	     -5.15953358	     -1.63120060	    -64.61599623	    -14.33877139	    -13.55929259	     20.79855144	     10.48704538	      0.58633201	    -28.37384826	      4.74129590	      1.13669844	     -5.37105900	     -5.83756852	     -0.70403163	     -2.45013430	    -17.81502443	      6.02649236	     28.06870755	     86.51662706	      0.00000000	      0.00000000	     -2.16276690	    -15.96323141	     28.53205588	     11.44928275	     86.51662706	      0.00000000	      0.00000000
      2.07000000	     -0.59614389	      5.21498299	      2.39929249	     -0.31923167	      0.90447738	      0.19196735	      9.72569119	     -4.94909304	     -1.00344338	    -66.24743672	    -13.27481351	    -14.73450489	     19.76681367	     10.25752239	      0.08883109	    -27.86419574	      5.43984420	      1.72477830	     -5.39633386	     -5.78642005	     -0.95664600	     -2.25816872	    -17.64423149	      6.95101211	     26.76661715	     86.51662706	      0.00000000	      0.00000000	     -1.72981516	    -16.19572126	     28.52962230	     12.26135991	     86.51662706	      0.00000000	      0.00000000
      2.08000000	     -0.66673072	      5.09752637	      2.11471631	     -0.30724657	      0.90646465	      0.19180659	     11.88504039	     -4.65081307	     -0.42682323	    -67.46924095	    -12.13597162	    -15.22841837	     18.65957731	     10.02316104	     -0.17593251	    -27.27662528	      6.06977655	      2.16328252	     -5.43818123	     -5.65909585	     -1.23241890	     -2.13023282	    -17.48394919	      7.81265909	     25.53566258	     86.51662706	      0.00000000	      0.00000000	     -1.28995120	    -16.43022269	     28.49490819	     13.11747488	     86.51662706	      0.00000000	      0.00000000
      2.09000000	     -0.71694919	      4.94094513	      1.88740739	     -0.29521416	      0.90851508	      0.19161326	     13.91447671	     -4.29701434	      0.08020538	    -68.29181530	    -10.93189472	    -15.08458916	     17.47633267	      9.79867070	     -0.19568772	    -26.61435845	      6.64215810	      2.44904523	     -5.49407035	     -5.47345354	     -1.53288721	     -2.08481964	    -17.32921745	      8.57883631	     24.39101538	     86.51662706	      0.00000000	      0.00000000	     -0.84424609	    -16.67047078	     28.42169536	     14.01728763	     86.51662706	      0.00000000	      0.00000000
      2.10000000	     -0.74800752	      4.75403193	      1.72751411	     -0.28313969	      0.91055868	      0.19136689	     15.80689076	     -3.92131907	      0.49331609	    -68.72967021	     -9.66228644	    -14.41107866	     16.22648281	      9.58955565	      0.01199342	    -25.88738747	      7.16507472	      2.59167484	     -5.56068682	     -5.24220082	     -1.85910987	     -2.12949043	    -17.17858294	      9.22635496	     23.34004316	     86.51662706	      0.00000000	      0.00000000	     -0.39350159	    -16.91893678	     28.30305182	     14.96135010	     86.51662706	      0.00000000	      0.00000000
      2.11000000	     -0.76165239	      4.54322572	      1.64151905	     -0.27101337	      0.91254215	      0.19102848	     17.56330670	     -3.55429639	      0.78766351	    -68.79833009	     -8.33348385	    -13.36158759	     14.92837655	      9.39499826	      0.40478476	    -25.11314716	      7.64436501	      2.61213793	     -5.63435850	     -4.97363537	     -2.21172393	     -2.26149458	    -17.03356946	      9.74264435	     22.38187877	     86.51662706	      0.00000000	      0.00000000	      0.06184712	    -17.17642951	     28.13213034	     15.95046306	     86.51662706	      0.00000000	      0.00000000
      2.12000000	     -0.76111351	      4.31367617	      1.63188918	     -0.25882934	      0.91442328	      0.19056599	     19.18842734	     -3.22020828	      0.94409519	    -68.51313136	     -6.96895284	    -12.11309467	     13.60462125	      9.21131018	      0.92419675	    -24.31384212	      8.08507868	      2.54056824	     -5.71161331	     -4.67397114	     -2.59099775	     -2.47000493	    -16.89719625	     10.12574548	     21.50816613	     86.51662706	      0.00000000	      0.00000000	      0.52164999	    -17.44230956	     27.90298252	     16.98507348	     86.51662706	      0.00000000	      0.00000000
      2.13000000	     -0.75097941	      4.07041741	      1.69696547	     -0.24660699	      0.91616355	      0.18997433	     20.68656432	     -2.93539086	      0.95405393	    -67.88863181	     -5.61140672	    -10.84369374	     12.27634685	      9.03409560	      1.50593155	    -23.51130634	      8.49293575	      2.41326388	     -5.78984957	     -4.34978988	     -2.99663384	     -2.73915650	    -16.77211416	     10.38323193	     20.70476988	     86.51662706	      0.00000000	      0.00000000	      0.98571513	    -17.71511995	     27.61131211	     18.06478926	     86.51662706	      0.00000000	      0.00000000
      2.14000000	     -0.73527844	      3.81990172	      1.83112103	     -0.23437703	      0.91772626	      0.18926939	     22.05950351	     -2.70802791	      0.82158796	    -66.93802255	     -4.31715203	     -9.71326525	     10.95858850	      8.85883846	      2.09011458	    -22.72157679	      8.87517795	      2.26897950	     -5.86794604	     -4.00961788	     -3.42723902	     -3.05107086	    -16.65905741	     10.53030630	     19.95406461	     86.51662706	      0.00000000	      0.00000000	      1.45329898	    -17.99328338	     27.25509173	     19.18807553	     86.51662706	      0.00000000	      0.00000000
      2.15000000	     -0.71564809	      3.57043583	      2.02524767	     -0.22215912	      0.91907407	      0.18847151	     23.30650892	     -2.53931036	      0.56222246	    -65.67284108	     -3.14535998	     -8.84851472	      9.65706649	      8.68116242	      2.62949302	    -21.95146177	      9.24048670	      2.14479825	     -5.94657728	     -3.66433783	     -3.87969614	     -3.38829704	    -16.55613324	     10.58738753	     19.23736750	     86.51662706	      0.00000000	      0.00000000	      1.92261879	    -18.27557339	     26.83497454	     20.35216945	     86.51662706	      0.00000000	      0.00000000
      2.16000000	     -0.69122942	      3.33101404	      2.26752139	     -0.20995412	      0.92017099	      0.18760434	     24.42541986	     -2.42576024	      0.19929119	    -64.10346420	     -2.14596265	     -8.33289649	      8.36691488	      8.49783340	      3.09417955	    -21.19812207	      9.59799906	      2.07205741	     -6.02815374	     -3.32659674	     -4.34883627	     -3.73538341	    -16.45907735	     10.57753464	     18.53714815	     86.51662706	      0.00000000	      0.00000000	      2.39063752	    -18.56127472	     26.35444776	     21.55318088	     86.51662706	      0.00000000	      0.00000000
      2.17000000	     -0.65962894	      3.10980642	      2.54434340	     -0.19774505	      0.92099772	      0.18670664	     25.41376293	     -2.36209454	     -0.24121108	    -62.24032181	     -1.34972607	     -8.20122141	      7.07471697	      8.30819440	      3.47251841	    -20.45144252	      9.95576640	      2.07295253	     -6.11646955	     -3.00954354	     -4.82771773	     -4.07957187	    -16.36220827	     10.52403685	     17.83877395	     86.51662706	      0.00000000	      0.00000000	      2.85324936	    -18.85010204	     25.81970873	     22.78627012	     86.51662706	      0.00000000	      0.00000000
      2.18000000	     -0.61754682	      2.91370319	      2.84162125	     -0.18550730	      0.92155932	      0.18582906	     26.26937434	     -2.34364928	     -0.73579225	    -60.09520061	     -0.76295166	     -8.43846867	      5.76393363	      8.11494559	      3.76858115	    -19.69833165	     10.31917622	      2.15844200	     -6.21607254	     -2.72525196	     -5.30858773	     -4.41086390	    -16.25961999	     10.44843583	     17.13166211	     86.51662706	      0.00000000	      0.00000000	      3.30581886	    -19.14196020	     25.23929475	     24.04578693	     86.51662706	      0.00000000	      0.00000000
      2.19000000	     -0.56116680	      2.74912762	      3.14652113	     -0.17322229	      0.92187563	      0.18500920	     26.99048054	     -2.36741555	     -1.26721544	    -57.68205144	     -0.36763443	     -8.98239723	      4.42144520	      7.92349839	      3.99739084	    -18.92776067	     10.68988293	      2.32783604	     -6.33133167	     -2.48322136	     -5.78431301	     -4.72182600	    -16.14621161	     10.36913668	     16.40981018	     86.51662706	      0.00000000	      0.00000000	      3.74388460	    -19.43658554	     24.62354308	     25.32531411	     86.51662706	      0.00000000	      0.00000000
      2.20000000	     -0.48725069	      2.62237644	      3.44938356	     -0.16088490	      0.92197331	      0.18425555	     27.57587214	     -2.43148211	     -1.82600716	    -55.01700850	     -0.12624721	     -9.72984401	      3.04189992	      7.74045965	      4.17926587	    -18.13519906	     11.06562684	      2.57010997	     -6.46531864	     -2.28939706	     -6.24977950	     -5.00743429	    -16.01834297	     10.30064214	     15.67176105	     86.51662706	      0.00000000	      0.00000000	      4.16373222	    -19.73316290	     23.98397836	     26.61762735	     86.51662706	      0.00000000	      0.00000000
      2.21000000	     -0.39468311	      2.53787522	      3.74505883	     -0.14849534	      0.92187831	      0.18355742	     28.02582450	     -2.53347192	     -2.40971197	    -52.11763954	      0.01073449	    -10.54677386	      1.62838482	      7.57233076	      4.33474729	    -17.32517331	     11.44100123	      2.86667300	     -6.61879634	     -2.14600168	     -6.70270133	     -5.26504744	    -15.87409821	     10.25334052	     14.92011375	     86.51662706	      0.00000000	      0.00000000	      4.56262464	    -20.03009733	     23.33270006	     27.91463149	     86.51662706	      0.00000000	      0.00000000
      2.22000000	     -0.28533994	      2.49550741	      4.03301611	     -0.13604387	      0.92160049	      0.18290774	     28.34337379	     -2.66901442	     -3.02045015	    -49.00201027	      0.09648304	    -11.28188621	      0.19065878	      7.42435910	      4.48122062	    -16.51117262	     11.80893055	      3.19503822	     -6.78961868	     -2.05200912	     -7.14348604	     -5.49437737	    -15.71326027	     10.23371878	     14.16071852	     86.51662706	      0.00000000	      0.00000000	      4.93875526	    -20.32503558	     22.68178706	     29.20736203	     86.51662706	      0.00000000	      0.00000000
      2.23000000	     -0.16384394	      2.48988067	      4.31597689	     -0.12350954	      0.92113285	      0.18231423	     28.53489347	     -2.83097648	     -3.66175781	    -45.68874236	      0.18003104	    -11.78298731	     -1.25702935	      7.29893313	      4.63151409	    -15.71292658	     12.16240622	      3.53265179	     -6.97261606	     -2.00366857	     -7.57407397	     -5.69727798	    -15.53711876	     10.24486417	     13.40169392	     86.51662706	      0.00000000	      0.00000000	      5.29108706	    -20.61511435	     22.04271447	     30.48613153	     86.51662706	      0.00000000	      0.00000000
      2.24000000	     -0.03674857	      2.51239913	      4.59728262	     -0.11087080	      0.92046827	      0.18179217	     28.60959940	     -3.00929965	     -4.33595886	    -42.19919023	      0.30002348	    -11.91470656	     -2.69780520	      7.19402814	      4.79397177	    -14.95196483	     12.49588194	      3.86017081	     -7.15993701	     -1.99483833	     -7.99604034	     -5.87728456	    -15.34819366	     10.28714342	     12.65239469	     86.51662706	      0.00000000	      0.00000000	      5.61912645	    -20.89731962	     21.42578589	     31.74085266	     86.51662706	      0.00000000	      0.00000000
